<svg width="57" height="30" viewBox="0 0 57 30" fill="none" xmlns="http://www.w3.org/2000/svg">
<rect x="1" y="1" width="55" height="28" rx="7" fill="#2A9D8F" stroke="#2A9D8F" stroke-width="2"/>
<path d="M31.8281 7H24.1684C23.9724 7 22.9442 7.052 21.9782 8.0808C21.0271 9.0928 21 10.0896 21 10.2V19C21 19.4243 21.1844 19.8313 21.5126 20.1314C21.8408 20.4314 22.2859 20.6 22.75 20.6H23.625L21.875 23H23.9339L24.5175 22.2H31.5175L32.1099 23H34.125L32.375 20.6H33.25C33.7141 20.6 34.1592 20.4314 34.4874 20.1314C34.8156 19.8313 35 19.4243 35 19V10.2C35.0009 10.0496 34.972 9.0528 34.0121 8.068C33.0006 7.0296 31.9454 7 31.8281 7ZM26.25 8.6H29.75V10.2H26.25V8.6ZM24.0625 19C23.7143 18.9999 23.3804 18.8733 23.1342 18.6481C22.8881 18.4229 22.7499 18.1176 22.75 17.7992C22.7501 17.4808 22.8886 17.1755 23.1349 16.9505C23.3812 16.7255 23.7152 16.5991 24.0634 16.5992C24.4116 16.5993 24.7455 16.7259 24.9916 16.9511C25.2378 17.1763 25.376 17.4816 25.3759 17.8C25.3758 18.1184 25.2373 18.4237 24.991 18.6487C24.7447 18.8737 24.4107 19.0001 24.0625 19ZM31.9375 19C31.5893 18.9999 31.2554 18.8733 31.0092 18.6481C30.7631 18.4229 30.6249 18.1176 30.625 17.7992C30.6251 17.4808 30.7635 17.1755 31.0098 16.9505C31.2562 16.7255 31.5901 16.5991 31.9384 16.5992C32.2866 16.5993 32.6205 16.7259 32.8666 16.9511C33.1128 17.1763 33.251 17.4816 33.2509 17.8C33.2507 18.1184 33.1123 18.4237 32.866 18.6487C32.6197 18.8737 32.2857 19.0001 31.9375 19ZM33.25 15H22.75V11.8H33.25V15Z" fill="white"/>
</svg>
