<svg width="32" height="32" viewBox="0 0 32 32" fill="none" xmlns="http://www.w3.org/2000/svg">
<circle cx="16" cy="16" r="15.5" fill="white" stroke="black"/>
<path d="M9.58333 22.4167H10.8896L19.85 13.4563L18.5437 12.15L9.58333 21.1104V22.4167ZM7.75 24.25V20.3542L19.85 8.27708C20.0333 8.10903 20.2359 7.97917 20.4578 7.8875C20.6796 7.79583 20.9124 7.75 21.1563 7.75C21.4001 7.75 21.6369 7.79583 21.8667 7.8875C22.0964 7.97917 22.2951 8.11667 22.4625 8.3L23.7229 9.58333C23.9062 9.75139 24.0401 9.95 24.1244 10.1792C24.2088 10.4083 24.2506 10.6375 24.25 10.8667C24.25 11.1111 24.2081 11.3443 24.1244 11.5661C24.0407 11.7879 23.9069 11.9902 23.7229 12.1729L11.6458 24.25H7.75ZM19.1854 12.8146L18.5437 12.15L19.85 13.4563L19.1854 12.8146Z" fill="black"/>
</svg>
