<svg width="75" height="94" viewBox="0 0 75 94" fill="none" xmlns="http://www.w3.org/2000/svg">
<path d="M6.86803 16.7461C7.8018 14.7161 9.97071 14.2787 11.619 15.7871C12.9164 16.9746 14.2142 18.1621 15.5116 19.3496C15.8596 18.7432 16.2217 18.1456 16.5975 17.5576C18.9285 18.8526 21.2597 20.1474 23.5907 21.4424C23.0035 22.7095 22.4804 23.9982 22.0165 25.3037C25.9968 28.9467 29.9775 32.5894 33.9579 36.2324C36.1787 38.265 38.4001 40.2975 40.621 42.3301C40.787 42.4824 40.5032 43.1271 39.7694 44.2627C39.3194 44.7544 38.8688 45.2456 38.4188 45.7373C37.3523 46.5686 36.7355 46.909 36.5692 46.7568C34.3484 44.7242 32.1279 42.6908 29.9071 40.6582C26.6804 37.7049 23.4532 34.7521 20.2264 31.7988C19.1678 37.0755 18.9728 42.5422 19.3895 48.042C20.4041 61.0955 23.418 75.0395 30.0643 87.2666C30.1165 87.3616 30.1682 87.4559 30.2196 87.5488C31.7903 90.3911 29.1168 93.1503 26.2264 91.6699C-0.786501 77.9683 -6.35722 41.2076 6.86803 16.7461ZM10.5477 22.9394C2.35566 41.7741 5.10555 64.9979 18.8944 78.9414C14.236 69.5849 10.3187 59.7042 9.41784 48.7959C8.8678 41.6055 9.55582 34.1264 11.9813 27.1269C12.2301 26.4062 12.4976 25.6919 12.7821 24.9844C12.0373 24.3027 11.2925 23.6211 10.5477 22.9394Z" fill="#095B51"/>
<path d="M49.5969 15.4424C50.888 18.2109 51.8051 21.1343 52.4075 24.1475C52.4994 24.6082 52.5846 25.0707 52.6623 25.5352C48.7594 28.8715 44.8563 32.2076 40.9534 35.5439C38.5318 37.614 36.1103 39.6848 33.6887 41.7549C33.5076 41.9101 33.7597 42.572 34.4446 43.7402C34.8775 44.2467 35.3104 44.7533 35.7434 45.2598C36.7908 46.118 37.4056 46.4701 37.5871 46.3154C40.0086 44.2455 42.4303 42.1754 44.8518 40.1055C47.6825 37.6857 50.5133 35.2655 53.344 32.8457C53.4394 36.419 53.2227 40.052 52.7932 43.6875C51.0753 57.6569 47.7691 72.3962 41.0608 85.5664C40.5432 86.5682 39.9933 87.5985 39.468 88.5488C37.8973 91.391 40.5709 94.15 43.4612 92.6699C70.3234 79.5653 83.4506 43.2195 68.8196 16.7461C67.9104 14.7698 65.7984 14.3062 64.1448 15.7197C62.8515 16.8252 61.5581 17.9306 60.2649 19.0361C59.3026 16.4332 58.0817 13.9119 56.5911 11.5576C54.26 12.8527 51.928 14.1473 49.5969 15.4424ZM65.0959 22.7998C74.0014 43.2688 66.6995 67.4664 49.9543 81.2939C55.6787 69.8918 61.0503 58.0842 62.7229 44.8652C63.4736 38.5035 63.4546 31.8732 62.0823 25.376C63.0868 24.5172 64.0914 23.6585 65.0959 22.7998Z" fill="#095B51"/>
<path d="M30.594 12C30.594 15.3137 27.9077 18 24.594 18C21.2803 18 18.594 15.3137 18.594 12C18.594 8.68629 21.2803 6 24.594 6C27.9077 6 30.594 8.68629 30.594 12Z" fill="#095B51"/>
<path d="M42.594 6C42.594 9.31371 45.2803 12 48.594 12C51.9077 12 54.594 9.31371 54.594 6C54.594 2.68629 51.9077 0 48.594 0C45.2803 0 42.594 2.68629 42.594 6Z" fill="#095B51"/>
</svg>
