<svg width="32" height="32" viewBox="0 0 32 32" fill="none" xmlns="http://www.w3.org/2000/svg">
<circle cx="16" cy="16" r="15.5" fill="white" stroke="black"/>
<path d="M18 7.269C18 6.568 17.432 6 16.731 6H15.27C14.568 6 14 6.568 14 7.269C14 7.847 13.604 8.343 13.065 8.555C12.98 8.589 12.895 8.625 12.812 8.661C12.281 8.891 11.65 8.821 11.24 8.412C11.002 8.17421 10.6794 8.04064 10.343 8.04064C10.0066 8.04064 9.68396 8.17421 9.446 8.412L8.412 9.446C8.17421 9.68396 8.04064 10.0066 8.04064 10.343C8.04064 10.6794 8.17421 11.002 8.412 11.24V11.24C8.822 11.65 8.892 12.28 8.66 12.812C8.62355 12.8957 8.58854 12.9801 8.555 13.065C8.343 13.604 7.847 14 7.269 14C6.568 14 6 14.568 6 15.269V16.731C6 17.432 6.568 18 7.269 18C7.847 18 8.343 18.396 8.555 18.935C8.589 19.02 8.625 19.105 8.66 19.188C8.891 19.719 8.821 20.35 8.412 20.76C8.17421 20.998 8.04064 21.3206 8.04064 21.657C8.04064 21.9934 8.17421 22.316 8.412 22.554L9.446 23.588C9.68396 23.8258 10.0066 23.9594 10.343 23.9594C10.6794 23.9594 11.002 23.8258 11.24 23.588C11.65 23.178 12.28 23.108 12.812 23.339C12.895 23.376 12.98 23.411 13.065 23.445C13.604 23.657 14 24.153 14 24.731C14 25.432 14.568 26 15.269 26H16.731C17.432 26 18 25.432 18 24.731C18 24.153 18.396 23.657 18.935 23.444C19.02 23.411 19.105 23.376 19.188 23.34C19.719 23.108 20.35 23.179 20.759 23.588C20.8768 23.7059 21.0168 23.7994 21.1708 23.8632C21.3248 23.927 21.4898 23.9599 21.6565 23.9599C21.8232 23.9599 21.9882 23.927 22.1422 23.8632C22.2962 23.7994 22.4362 23.7059 22.554 23.588L23.588 22.554C23.8258 22.316 23.9594 21.9934 23.9594 21.657C23.9594 21.3206 23.8258 20.998 23.588 20.76V20.76C23.178 20.35 23.108 19.72 23.339 19.188C23.376 19.105 23.411 19.02 23.445 18.935C23.657 18.396 24.153 18 24.731 18C25.432 18 26 17.432 26 16.731V15.27C26 14.569 25.432 14.001 24.731 14.001C24.153 14.001 23.657 13.605 23.444 13.066C23.4105 12.9811 23.3755 12.8967 23.339 12.813C23.109 12.282 23.179 11.651 23.588 11.241C23.8258 11.003 23.9594 10.6804 23.9594 10.344C23.9594 10.0076 23.8258 9.68496 23.588 9.447L22.554 8.413C22.316 8.17521 21.9934 8.04164 21.657 8.04164C21.3206 8.04164 20.998 8.17521 20.76 8.413V8.413C20.35 8.823 19.72 8.893 19.188 8.662C19.1043 8.62521 19.0199 8.58987 18.935 8.556C18.396 8.343 18 7.847 18 7.27V7.269Z" stroke="black" stroke-width="2"/>
<path d="M20 16C20 17.0609 19.5786 18.0783 18.8284 18.8284C18.0783 19.5786 17.0609 20 16 20C14.9391 20 13.9217 19.5786 13.1716 18.8284C12.4214 18.0783 12 17.0609 12 16C12 14.9391 12.4214 13.9217 13.1716 13.1716C13.9217 12.4214 14.9391 12 16 12C17.0609 12 18.0783 12.4214 18.8284 13.1716C19.5786 13.9217 20 14.9391 20 16V16Z" stroke="black" stroke-width="2"/>
</svg>
