<svg width="32" height="32" viewBox="0 0 32 32" fill="none" xmlns="http://www.w3.org/2000/svg">
<circle cx="16" cy="16" r="15.5" fill="white" stroke="black"/>
<path d="M23.545 21.467L19.766 17.688C20.3551 16.7211 20.6658 15.6103 20.664 14.478C20.664 11.061 17.703 8.10101 14.286 8.10101C13.4736 8.10088 12.6691 8.2608 11.9185 8.57163C11.168 8.88246 10.486 9.33811 9.91152 9.91256C9.33707 10.487 8.88142 11.169 8.57059 11.9196C8.25976 12.6702 8.09984 13.4746 8.09998 14.287C8.09998 17.703 11.061 20.664 14.477 20.664C15.5719 20.665 16.6473 20.3736 17.592 19.82L21.391 23.621C21.5696 23.7992 21.8117 23.8993 22.064 23.8993C22.3163 23.8993 22.5583 23.7992 22.737 23.621L23.68 22.678C24.051 22.307 23.916 21.838 23.545 21.467ZM10.004 14.287C10.0038 13.7246 10.1145 13.1677 10.3296 12.6481C10.5448 12.1284 10.8602 11.6563 11.2578 11.2585C11.6554 10.8608 12.1275 10.5453 12.6471 10.3301C13.1667 10.1148 13.7236 10.004 14.286 10.004C16.652 10.004 18.76 12.111 18.76 14.478C18.7597 15.6139 18.3084 16.7031 17.5052 17.5063C16.7021 18.3094 15.6128 18.7607 14.477 18.761C12.111 18.76 10.004 16.652 10.004 14.287Z" fill="black"/>
</svg>
