<svg width="66" height="65" viewBox="0 0 66 65" fill="none" xmlns="http://www.w3.org/2000/svg">
<path d="M33 2.5C49.8808 2.5 63.5 15.9673 63.5 32.5C63.5 49.0327 49.8808 62.5 33 62.5C16.1192 62.5 2.5 49.0327 2.5 32.5C2.5 15.9673 16.1192 2.5 33 2.5Z" stroke="#E76F51" stroke-width="5"/>
<path d="M29.2651 22.3228C26.2305 19.2257 21.3105 19.2257 18.2759 22.3228C15.2414 25.4198 15.2414 30.4411 18.2759 33.5381L32.4461 48L32.5 47.945L32.5539 48L46.7241 33.5381C49.7586 30.4411 49.7586 25.4198 46.7241 22.3228C43.6895 19.2258 38.7695 19.2258 35.735 22.3228L32.5 25.6243L29.2651 22.3228Z" fill="#E76F51"/>
</svg>
