<svg width="58" height="58" viewBox="0 0 58 58" fill="none" xmlns="http://www.w3.org/2000/svg">
<path d="M56.6977 49.0705L42.8252 35.1967C44.9878 31.6468 46.1285 27.5687 46.1217 23.4118C46.1217 10.867 35.252 2.96865e-07 22.7084 2.96865e-07C19.7262 -0.000481963 16.7731 0.586616 14.0177 1.72776C11.2624 2.8689 8.75884 4.54174 6.65007 6.65071C4.5413 8.75968 2.86863 11.2635 1.7276 14.0191C0.58656 16.7747 -0.000481917 19.7281 2.96837e-07 22.7106C2.96837e-07 35.2517 10.8697 46.1224 23.4096 46.1224C27.4291 46.126 31.3767 45.0564 34.8446 43.0239L48.7905 56.9784C49.4463 57.6326 50.3347 58 51.261 58C52.1873 58 53.0757 57.6326 53.7316 56.9784L57.1933 53.5164C58.5552 52.1544 58.0596 50.4325 56.6977 49.0705ZM6.98947 22.7106C6.98899 20.6459 7.39522 18.6012 8.18495 16.6935C8.97469 14.7858 10.1325 13.0524 11.5922 11.5922C13.0518 10.132 14.7848 8.97372 16.6922 8.18347C18.5996 7.39321 20.6439 6.98647 22.7084 6.98647C31.3939 6.98647 39.1322 14.7219 39.1322 23.4118C39.1313 27.5818 37.4744 31.5808 34.5261 34.5294C31.5777 37.478 27.5792 39.135 23.4096 39.136C14.7241 39.1323 6.98947 31.3932 6.98947 22.7106Z" fill="white"/>
</svg>
