<svg width="57" height="30" viewBox="0 0 57 30" fill="none" xmlns="http://www.w3.org/2000/svg">
<rect x="1" y="1" width="55" height="28" rx="7" fill="white" stroke="#2A9D8F" stroke-width="2"/>
<path d="M29.2577 9.81992C30.0364 9.81992 30.6677 9.18866 30.6677 8.40996C30.6677 7.63126 30.0364 7 29.2577 7C28.479 7 27.8478 7.63126 27.8478 8.40996C27.8478 9.18866 28.479 9.81992 29.2577 9.81992Z" fill="#2A9D8F"/>
<path d="M29.7577 10.9486L27.2518 10.0948L24.0414 11.2623C23.8502 11.3323 23.685 11.4593 23.5681 11.6261C23.4513 11.7929 23.3884 11.9915 23.3879 12.1951V14.6107H24.7115V12.4271L26.7304 11.6929L23 23.2141H24.3903L26.4618 16.7694L26.7874 16.8756L28.3514 19.7429V23.2141H29.675V19.6586C29.6749 19.4925 29.6332 19.3291 29.5537 19.1832L28.0002 16.3349L29.1976 12.6655L29.9946 14.1001C30.0806 14.2548 30.2064 14.3837 30.359 14.4735C30.5116 14.5633 30.6853 14.6107 30.8624 14.6107H32.984V13.2871H31.0571L29.7577 10.9486Z" fill="#2A9D8F"/>
</svg>
