<svg width="57" height="30" viewBox="0 0 57 30" fill="none" xmlns="http://www.w3.org/2000/svg">
<rect x="1" y="1" width="55" height="28" rx="7" fill="white" stroke="#2A9D8F" stroke-width="2"/>
<path fill-rule="evenodd" clip-rule="evenodd" d="M34.3646 8.10783L31.5155 8.96402L33.413 13.9264C34.5564 13.6463 35.7636 13.8125 36.7889 14.3912C37.8141 14.9698 38.5803 15.9175 38.9314 17.0411C39.2826 18.1648 39.1923 19.38 38.679 20.4395C38.1657 21.4989 37.2679 22.323 36.1684 22.7438C35.069 23.1646 33.8505 23.1506 32.7609 22.7047C31.6714 22.2587 30.7928 21.4143 30.3039 20.3434C29.8151 19.2724 29.7527 18.0554 30.1295 16.9401C30.5064 15.8248 31.2941 14.895 32.3323 14.3401L31.3789 11.8467L28.0919 18.6742C28.0445 18.7723 27.9704 18.855 27.8781 18.9128C27.7858 18.9706 27.679 19.0012 27.5701 19.0011H25.2202C25.0717 20.1681 24.4844 21.2347 23.5777 21.9843C22.671 22.7338 21.5129 23.11 20.3388 23.0363C19.1647 22.9627 18.0626 22.4447 17.2567 21.5877C16.4508 20.7307 16.0015 19.599 16 18.4226C15.9991 17.2447 16.4474 16.1108 17.2534 15.252C18.0595 14.3931 19.1627 13.8739 20.3382 13.8002C21.5138 13.7264 22.6732 14.1036 23.5803 14.855C24.4874 15.6064 25.0738 16.6753 25.2202 17.8441H26.6665L23.8434 9.93938C23.8211 9.87699 23.8098 9.81124 23.8098 9.745H22.942C22.7886 9.745 22.6415 9.68405 22.533 9.57556C22.4245 9.46707 22.3635 9.31993 22.3635 9.1665C22.3635 9.01307 22.4245 8.86592 22.533 8.75743C22.6415 8.64894 22.7886 8.58799 22.942 8.58799H25.5453C25.6987 8.58799 25.8459 8.64894 25.9544 8.75743C26.0629 8.86592 26.1238 9.01307 26.1238 9.1665C26.1238 9.31993 26.0629 9.46707 25.9544 9.57556C25.8459 9.68405 25.6987 9.745 25.5453 9.745H25.0027L26.0683 12.7283L30.7698 10.2541L30.2115 8.79452C30.1831 8.72019 30.1703 8.6408 30.174 8.56131C30.1777 8.48182 30.1977 8.40395 30.2328 8.33255C30.2679 8.26115 30.3174 8.19776 30.3782 8.14636C30.4389 8.09495 30.5096 8.05663 30.5858 8.03379L34.032 7L34.3646 8.10783ZM26.4611 13.8292L27.6019 17.0226L30.049 11.941L26.4611 13.8292ZM33.9718 18.6291L32.7494 15.4317C31.9998 15.8739 31.4437 16.5816 31.1913 17.4146C30.9389 18.2475 31.0086 19.1448 31.3866 19.9288C31.7646 20.7127 32.4233 21.326 33.2322 21.6472C34.0411 21.9684 34.9412 21.974 35.754 21.6629C36.5668 21.3518 37.2331 20.7466 37.6208 19.9675C38.0085 19.1883 38.0893 18.2919 37.8473 17.4559C37.6052 16.6199 37.058 15.9053 36.3139 15.4538C35.5699 15.0023 34.6834 14.8468 33.8301 15.0181L35.0524 18.216C35.1047 18.3588 35.0987 18.5164 35.0357 18.6547C34.9727 18.7931 34.8578 18.9011 34.7158 18.9554C34.5738 19.0097 34.4161 19.0059 34.2769 18.9448C34.1377 18.8837 34.0281 18.7703 33.9718 18.6291ZM24.051 17.8441H20.628C20.4746 17.8441 20.3275 17.905 20.219 18.0135C20.1105 18.122 20.0495 18.2691 20.0495 18.4226C20.0495 18.576 20.1105 18.7231 20.219 18.8316C20.3275 18.9401 20.4746 19.0011 20.628 19.0011H24.051C23.9037 19.8573 23.4407 20.6272 22.7534 21.1587C22.0662 21.6902 21.2046 21.9448 20.3388 21.8721C19.4731 21.7995 18.666 21.4049 18.0769 20.7663C17.4879 20.1276 17.1596 19.2914 17.157 18.4226C17.1562 17.5517 17.4828 16.7123 18.072 16.071C18.6612 15.4297 19.47 15.0333 20.3378 14.9605C21.2056 14.8877 22.0691 15.1438 22.7569 15.6779C23.4448 16.212 23.9067 16.9852 24.051 17.8441Z" fill="#2A9D8F"/>
</svg>
