<svg width="57" height="30" viewBox="0 0 57 30" fill="none" xmlns="http://www.w3.org/2000/svg">
<rect x="1" y="1" width="55" height="28" rx="7" fill="white" stroke="#2A9D8F" stroke-width="2"/>
<path d="M35.9562 12.4711L34.7934 8.82311C34.6247 8.29198 34.3003 7.82996 33.8661 7.50267C33.432 7.17539 32.9103 6.9995 32.3752 7H24.6249C24.0897 6.9995 23.568 7.17539 23.1339 7.50267C22.6997 7.82996 22.3753 8.29198 22.2066 8.82311L21.0438 12.4711C20.7346 12.6064 20.4705 12.8343 20.2848 13.1261C20.0991 13.4179 20 13.7606 20 14.1111V18.5556C20 19.2116 20.3434 19.7787 20.85 20.0871V22.1111C20.85 22.3469 20.9396 22.573 21.099 22.7397C21.2584 22.9064 21.4746 23 21.7 23H22.55C22.7754 23 22.9916 22.9064 23.151 22.7397C23.3104 22.573 23.4 22.3469 23.4 22.1111V20.3333H33.6V22.1111C33.6 22.3469 33.6896 22.573 33.849 22.7397C34.0084 22.9064 34.2246 23 34.45 23H35.3C35.5254 23 35.7416 22.9064 35.901 22.7397C36.0604 22.573 36.15 22.3469 36.15 22.1111V20.0871C36.4079 19.9325 36.6222 19.7094 36.7715 19.4406C36.9207 19.1717 36.9995 18.8664 37 18.5556V14.1111C37 13.7606 36.9009 13.4179 36.7152 13.1261C36.5295 12.8343 36.2654 12.6064 35.9562 12.4711ZM24.6249 8.77778H32.3743C32.7407 8.77778 33.0654 9.02133 33.181 9.38578L34.1211 12.3333H22.879L23.8182 9.38578C23.8746 9.20871 23.9829 9.05469 24.1276 8.94556C24.2724 8.83644 24.4464 8.77773 24.6249 8.77778ZM22.975 17.6667C22.8075 17.6666 22.6417 17.6321 22.4869 17.565C22.3322 17.4979 22.1917 17.3996 22.0733 17.2757C21.9549 17.1518 21.861 17.0047 21.7969 16.8429C21.7329 16.681 21.6999 16.5076 21.7 16.3324C21.7001 16.1573 21.7331 15.9839 21.7972 15.8221C21.8614 15.6603 21.9554 15.5133 22.0739 15.3895C22.1923 15.2656 22.333 15.1674 22.4877 15.1005C22.6425 15.0335 22.8084 14.9991 22.9759 14.9991C23.3141 14.9992 23.6385 15.1399 23.8776 15.3901C24.1167 15.6403 24.251 15.9796 24.2509 16.3333C24.2507 16.6871 24.1163 17.0263 23.877 17.2763C23.6377 17.5264 23.3133 17.6668 22.975 17.6667ZM34.025 17.6667C33.8575 17.6666 33.6917 17.6321 33.5369 17.565C33.3822 17.4979 33.2417 17.3996 33.1233 17.2757C33.0049 17.1518 32.911 17.0047 32.8469 16.8429C32.7829 16.681 32.7499 16.5076 32.75 16.3324C32.7501 16.1573 32.7831 15.9839 32.8472 15.8221C32.9114 15.6603 33.0054 15.5133 33.1239 15.3895C33.2423 15.2656 33.383 15.1674 33.5377 15.1005C33.6925 15.0335 33.8584 14.9991 34.0259 14.9991C34.3641 14.9992 34.6885 15.1399 34.9276 15.3901C35.1667 15.6403 35.301 15.9796 35.3008 16.3333C35.3007 16.6871 35.1663 17.0263 34.927 17.2763C34.6877 17.5264 34.3633 17.6668 34.025 17.6667Z" fill="#2A9D8F"/>
</svg>
